<svg width="32" height="32" xmlns="http://www.w3.org/2000/svg">
 <title/>
 <desc/>

 <g>
  <title>background</title>
  <rect fill="none" id="canvas_background" height="402" width="582" y="-1" x="-1"/>
 </g>
 <g>
  <title>Layer 1</title>
  <path fill="#ffffff" id="search" d="m19.42712,20.42712c-1.38987,0.99036 -3.09047,1.57288 -4.92712,1.57288c-4.69442,0 -8.5,-3.80558 -8.5,-8.5c0,-4.69442 3.80558,-8.5 8.5,-8.5c4.69442,0 8.5,3.80558 8.5,8.5c0,2.34721 -0.95139,4.47221 -2.48959,6.01041l5.99736,5.99736c0.27506,0.27506 0.26837,0.71609 -0.00777,0.99223c-0.27807,0.27807 -0.72038,0.27962 -0.99223,0.00777l-6.08065,-6.08065l0,0zm-4.92712,0.57288c4.14214,0 7.5,-3.35786 7.5,-7.5c0,-4.14214 -3.35786,-7.5 -7.5,-7.5c-4.14214,0 -7.5,3.35786 -7.5,7.5c0,4.14214 3.35786,7.5 7.5,7.5l0,0z"/>
 </g>
</svg>